<svg width="253" height="335" viewBox="0 0 253 335" fill="none" xmlns="http://www.w3.org/2000/svg">
<path d="M227.028 273.452L226.572 273.658L226.367 273.202L178.984 168.264L178.778 167.808L179.233 167.602L227.564 145.78C220.031 129.262 210.344 116.97 198.519 108.866L198.519 108.866L198.511 108.861C186.417 100.263 169.745 97.1895 148.422 99.7311L148.058 99.7745L147.908 99.4404L127.6 54.4667L127.369 53.9536L127.906 53.7841C144.057 48.6863 160.355 46.5406 176.797 47.3495C192.537 47.9264 207.376 51.1089 221.308 56.8988C235.242 62.6894 247.915 70.9697 259.327 81.736L259.333 81.7416L259.339 81.7473C270.262 92.7438 278.873 105.879 285.172 121.146L332.244 225.395L332.45 225.851L331.994 226.057L227.028 273.452ZM106.035 328.085L105.579 328.29L105.373 327.835L57.9902 222.896L57.7844 222.44L58.2401 222.235L106.571 200.412C99.0381 183.895 89.3509 171.602 77.5251 163.499L77.5181 163.494C65.4235 154.896 48.7519 151.822 27.4291 154.364L27.0651 154.407L26.9142 154.073L6.60712 109.099L6.37543 108.586L6.91232 108.417C23.0635 103.319 39.3615 101.173 55.8039 101.982C71.5441 102.559 86.3823 105.741 100.315 111.531C114.249 117.322 126.922 125.602 138.334 136.368L138.34 136.374L138.345 136.38C149.269 147.376 157.88 160.511 164.179 175.778L211.251 280.028L211.457 280.483L211.001 280.689L106.035 328.085Z" stroke="#E5E5EA" stroke-opacity="0.9"/>
</svg>
