<svg width="16" height="16" viewBox="0 0 16 16" fill="none" xmlns="http://www.w3.org/2000/svg">
<path d="M0.184615 8.66665C0.0615385 8.53331 0 8.33331 0 8.19998C0 8.06665 0.0615385 7.86665 0.184615 7.73331L1.04615 6.79998C1.29231 6.53331 1.66154 6.53331 1.90769 6.79998L1.96923 6.86665L5.35385 10.8C5.47692 10.9333 5.66154 10.9333 5.78462 10.8L14.0308 1.53331H14.0923V1.53331C14.3385 1.26665 14.7077 1.26665 14.9538 1.53331L15.8154 2.46665C16.0615 2.73331 16.0615 3.13331 15.8154 3.39998L5.96923 14.4666C5.84615 14.6 5.72308 14.6666 5.53846 14.6666C5.35385 14.6666 5.23077 14.6 5.10769 14.4666L0.307692 8.86665L0.184615 8.66665V8.66665Z" fill="#009C8E"/>
</svg>
