<svg width="58" height="46" viewBox="0 0 58 46" fill="none" xmlns="http://www.w3.org/2000/svg">
<path d="M51.7491 0H26.8329C23.6586 0.00311453 21.0861 2.5756 21.083 5.7499V17.2497H5.7499C2.5756 17.2528 0.00311453 19.8253 0 22.9996V36.416C0.0034739 39.2207 2.02684 41.615 4.79158 42.0864V45.0409C4.7917 45.5701 5.22079 45.9991 5.75014 45.999C6.00421 45.999 6.24775 45.898 6.42743 45.7184L9.97991 42.1659H30.6661C33.8404 42.1628 36.4129 39.5903 36.416 36.416V24.9162H47.5191L51.0716 28.4687C51.4459 28.8429 52.0527 28.8428 52.4269 28.4685C52.6064 28.2888 52.7074 28.0451 52.7074 27.7912V24.8367C55.4722 24.3653 57.4955 21.971 57.499 19.1663V5.7499C57.4959 2.5756 54.9234 0.00311453 51.7491 0ZM34.4994 36.416C34.4994 38.5331 32.7832 40.2493 30.6661 40.2493H9.58317C9.32897 40.2493 9.08532 40.3504 8.90564 40.5301L6.70822 42.7275V41.2076C6.70822 40.6784 6.27913 40.2493 5.7499 40.2493C3.63286 40.2493 1.91663 38.5331 1.91663 36.416V22.9996C1.91663 20.8826 3.63286 19.1663 5.7499 19.1663H30.6661C32.7832 19.1663 34.4994 20.8826 34.4994 22.9996V36.416ZM55.5824 19.1663C55.5824 21.2834 53.8661 22.9996 51.7491 22.9996C51.2199 22.9996 50.7908 23.4287 50.7908 23.9579V25.4778L48.5934 23.2804C48.4137 23.1007 48.17 22.9996 47.9158 22.9996H36.416C36.4129 19.8253 33.8404 17.2528 30.6661 17.2497H22.9996V5.7499C22.9996 3.63286 24.7158 1.91663 26.8329 1.91663H51.7491C53.8661 1.91663 55.5824 3.63286 55.5824 5.7499V19.1663Z" fill="#535353"/>
<path d="M10.5415 26.8329C8.95367 26.8329 7.66653 28.12 7.66653 29.7078C7.66653 31.2956 8.95367 32.5828 10.5415 32.5828C12.1293 32.5828 13.4164 31.2956 13.4164 29.7078C13.4164 28.12 12.1293 26.8329 10.5415 26.8329ZM10.5415 30.6662C10.0123 30.6662 9.58317 30.2371 9.58317 29.7078C9.58317 29.1786 10.0123 28.7495 10.5415 28.7495C11.0707 28.7495 11.4998 29.1786 11.4998 29.7078C11.4998 30.2371 11.0707 30.6662 10.5415 30.6662Z" fill="#8F71FF"/>
<path d="M18.208 26.8329C16.6202 26.8329 15.3331 28.12 15.3331 29.7078C15.3331 31.2956 16.6202 32.5828 18.208 32.5828C19.7958 32.5828 21.083 31.2956 21.083 29.7078C21.083 28.12 19.7958 26.8329 18.208 26.8329ZM18.208 30.6662C17.6788 30.6662 17.2497 30.2371 17.2497 29.7078C17.2497 29.1786 17.6788 28.7495 18.208 28.7495C18.7372 28.7495 19.1663 29.1786 19.1663 29.7078C19.1663 30.2371 18.7372 30.6662 18.208 30.6662Z" fill="#009C8E"/>
<path d="M25.8746 26.8329C24.2867 26.8329 22.9996 28.12 22.9996 29.7078C22.9996 31.2956 24.2867 32.5828 25.8746 32.5828C27.4624 32.5828 28.7495 31.2956 28.7495 29.7078C28.7495 28.12 27.4624 26.8329 25.8746 26.8329ZM25.8746 30.6662C25.3453 30.6662 24.9162 30.2371 24.9162 29.7078C24.9162 29.1786 25.3453 28.7495 25.8746 28.7495C26.4038 28.7495 26.8329 29.1786 26.8329 29.7078C26.8329 30.2371 26.4038 30.6662 25.8746 30.6662Z" fill="#FFDB6A"/>
<path d="M44.0826 5.74988H26.8329V7.66651H44.0826V5.74988Z" fill="#82ACFF"/>
<path d="M51.7491 5.74988H45.9992V7.66651H51.7491V5.74988Z" fill="#FF5D9E"/>
<path d="M32.5828 9.58313H26.8329V11.4998H32.5828V9.58313Z" fill="#FF5D9E"/>
<path d="M45.9992 9.58313H34.4994V11.4998H45.9992V9.58313Z" fill="#82ACFF"/>
<path d="M51.7491 13.4164H26.8329V15.333H51.7491V13.4164Z" fill="#82ACFF"/>
<path d="M44.0826 17.2498H36.416V19.1664H44.0826V17.2498Z" fill="#FF5D9E"/>
<path d="M51.7491 17.2498H45.9992V19.1664H51.7491V17.2498Z" fill="#FF5D9E"/>
<path d="M51.7491 9.58313H47.9158V11.4998H51.7491V9.58313Z" fill="#82ACFF"/>
</svg>
