<svg width="51" height="51" viewBox="0 0 51 51" fill="none" xmlns="http://www.w3.org/2000/svg">
                    <path d="M28.9917 24.186C29.1422 24.4802 29.4414 24.6501 29.7508 24.6501C29.88 24.6501 30.0125 24.6203 30.1359 24.5575C30.186 24.532 35.1891 21.9905 37.6567 21.211C38.1038 21.0691 38.3519 20.5914 38.21 20.1443C38.0688 19.6972 37.5946 19.4482 37.1433 19.5893C34.544 20.4113 29.5749 22.9358 29.3641 23.0428C28.9458 23.2553 28.7793 23.7671 28.9917 24.186Z" fill="#82ACFF"/>
                    <path d="M29.7508 14.4503C29.88 14.4503 30.0125 14.4205 30.1359 14.3577C30.186 14.3322 35.1891 11.7907 37.6566 11.0112C38.1038 10.8693 38.3519 10.3916 38.21 9.94451C38.0688 9.49737 37.5946 9.24835 37.1433 9.38949C34.544 10.2115 29.5749 12.7359 29.3641 12.843C28.9459 13.0555 28.7793 13.5672 28.9917 13.9862C29.1422 14.2803 29.4414 14.4503 29.7508 14.4503Z" fill="#82ACFF"/>
                    <path d="M50.1499 12.7503C49.6799 12.7503 49.3 13.1311 49.3 13.6002V46.7499C49.3 48.1558 48.1559 49.2999 46.75 49.2999H26.35V47.3441C27.5894 46.9106 30.8176 45.8999 34 45.8999C41.4044 45.8999 46.4321 47.5396 46.4822 47.5565C46.738 47.6415 47.0237 47.5991 47.2472 47.4392C47.4691 47.2794 47.5999 47.0227 47.5999 46.7498V9.35035C47.5999 8.95171 47.3237 8.60657 46.9344 8.52071C46.9344 8.52071 46.268 8.37199 45.1289 8.16281C44.669 8.07785 44.2246 8.38385 44.1395 8.84453C44.0546 9.30692 44.3597 9.74977 44.8212 9.83474C45.2556 9.91463 45.6194 9.98515 45.8999 10.0413V45.6203C43.9738 45.1153 39.6967 44.1999 33.9999 44.1999C30.2964 44.1999 26.6585 45.4163 25.533 45.8285C24.5325 45.3866 21.5083 44.1999 17.8499 44.1999C11.995 44.1999 7.17216 45.1655 5.09989 45.656V10.0082C6.79733 9.5908 11.8107 8.50029 17.8499 8.50029C20.949 8.50029 23.6069 9.46499 24.6499 9.90108V43.35C24.6499 43.656 24.8147 43.9391 25.0808 44.0895C25.3469 44.2408 25.675 44.2365 25.9376 44.0784C26.0218 44.0283 34.4436 38.998 41.9184 36.5067C42.2661 36.3902 42.4999 36.0664 42.4999 35.7001V0.850363C42.4999 0.571559 42.363 0.310585 42.1335 0.15171C41.9057 -0.00726503 41.6133 -0.0438213 41.3507 0.0539941C34.5498 2.60477 27.6683 6.88703 27.5994 6.92956C27.2016 7.17858 27.0801 7.70302 27.3291 8.10086C27.5773 8.49869 28.1017 8.62022 28.5004 8.37119C28.5632 8.33125 34.5498 4.6066 40.7998 2.09318V35.0915C34.9977 37.1077 28.9398 40.3998 26.3498 41.8736V9.35035C26.3498 9.02821 26.1679 8.73407 25.8798 8.58964C25.7335 8.51742 22.2503 6.80037 17.8499 6.80037C10.1693 6.80037 4.26437 8.46214 4.01614 8.53346C3.65147 8.63715 3.39986 8.97124 3.39986 9.35035V46.75C3.39986 47.0161 3.52567 47.2677 3.73734 47.4283C3.88695 47.5414 4.06714 47.6001 4.24993 47.6001C4.32812 47.6001 4.40631 47.589 4.48281 47.5669C4.54148 47.5508 10.4192 45.9001 17.8499 45.9001C20.9575 45.9001 23.6129 46.8673 24.6499 47.3016V49.3H4.24993C2.84404 49.3 1.69993 48.1559 1.69993 46.75V13.6003C1.69993 13.1312 1.31912 12.7504 0.849965 12.7504C0.380806 12.7504 0 13.1312 0 13.6003V46.75C0 49.0934 1.90652 51 4.25003 51H46.75C49.0934 51 51 49.0935 51 46.75V13.6003C50.9999 13.1311 50.62 12.7503 50.1499 12.7503Z" fill="#535353"/>
                    <path d="M28.9917 19.0861C29.1422 19.3803 29.4414 19.5502 29.7508 19.5502C29.88 19.5502 30.0125 19.5204 30.1359 19.4576C30.186 19.4321 35.1891 16.8906 37.6567 16.1111C38.1038 15.9692 38.3519 15.4915 38.21 15.0444C38.0688 14.5973 37.5946 14.3483 37.1433 14.4894C34.544 15.3114 29.5749 17.8358 29.3641 17.9429C28.9458 18.1554 28.7793 18.6672 28.9917 19.0861Z" fill="#82ACFF"/>
                    <path d="M28.9917 29.286C29.1422 29.5801 29.4414 29.75 29.7508 29.75C29.88 29.75 30.0125 29.7203 30.1359 29.6574C30.186 29.6319 35.1891 27.0904 37.6567 26.311C38.1038 26.169 38.3519 25.6913 38.21 25.2443C38.0688 24.7971 37.5946 24.5481 37.1433 24.6892C34.544 25.5112 29.5749 28.0357 29.3641 28.1428C28.9458 28.3552 28.7793 28.867 28.9917 29.286Z" fill="#82ACFF"/>
                    <path d="M20.5938 15.7746C15.3451 14.543 9.3806 16.1121 9.12988 16.1792C8.67686 16.3008 8.40742 16.7665 8.52894 17.2204C8.63094 17.6003 8.97429 17.8503 9.34922 17.8503C9.42233 17.8503 9.49624 17.8409 9.57025 17.8214C9.62723 17.8052 15.3698 16.2948 20.2063 17.4295C20.661 17.5358 21.1209 17.2527 21.228 16.7954C21.335 16.339 21.0511 15.8817 20.5938 15.7746Z" fill="#82ACFF"/>
                    <path d="M20.5938 20.8745C15.3451 19.6438 9.3806 21.212 9.12988 21.2791C8.67686 21.4006 8.40742 21.8665 8.52894 22.3203C8.63094 22.7002 8.97429 22.9502 9.34922 22.9502C9.42233 22.9502 9.49624 22.9408 9.57025 22.9213C9.62723 22.9051 15.3698 21.3947 20.2063 22.5294C20.661 22.6357 21.1209 22.3526 21.228 21.8953C21.335 21.4389 21.0511 20.9816 20.5938 20.8745Z" fill="#FF5D9E"/>
                    <path d="M28.9917 34.3859C29.1422 34.6801 29.4414 34.85 29.7508 34.85C29.88 34.85 30.0125 34.8202 30.1359 34.7574C30.186 34.7319 35.1891 32.1904 37.6567 31.4109C38.1038 31.269 38.3519 30.7913 38.21 30.3442C38.0688 29.8972 37.5946 29.6481 37.1433 29.7892C34.544 30.6112 29.5749 33.1356 29.3641 33.2427C28.9458 33.4552 28.7793 33.967 28.9917 34.3859Z" fill="#FFDB6A"/>
                    <path d="M20.5938 25.9745C15.3451 24.7438 9.3806 26.3111 9.12988 26.3791C8.67686 26.5007 8.40742 26.9665 8.52894 27.4203C8.63094 27.8002 8.97429 28.0511 9.34922 28.0511C9.42233 28.0511 9.49624 28.0409 9.57025 28.0213C9.62723 28.0051 15.3698 26.4947 20.2063 27.6294C20.661 27.7357 21.1209 27.4526 21.228 26.9953C21.335 26.5389 21.0511 26.0816 20.5938 25.9745Z" fill="#FF5D9E"/>
                    <path d="M20.5938 36.1744C15.3451 34.9427 9.3806 36.5119 9.12988 36.579C8.67686 36.7005 8.40742 37.1664 8.52894 37.6202C8.63094 38.0001 8.97429 38.2509 9.34922 38.2509C9.42233 38.2509 9.49624 38.2408 9.57025 38.2212C9.62723 38.205 15.3698 36.6946 20.2063 37.8293C20.661 37.9347 21.1209 37.6525 21.228 37.1952C21.335 36.7388 21.0511 36.2815 20.5938 36.1744Z" fill="#82ACFF"/>
                    <path d="M20.5938 31.0745C15.3451 29.8428 9.3806 31.411 9.12988 31.4791C8.67686 31.6006 8.40742 32.0665 8.52894 32.5203C8.63094 32.9002 8.97429 33.151 9.34922 33.151C9.42233 33.151 9.49624 33.1408 9.57025 33.1212C9.62723 33.1051 15.3698 31.5946 20.2063 32.7293C20.661 32.8356 21.1209 32.5525 21.228 32.0952C21.335 31.6388 21.0511 31.1815 20.5938 31.0745Z" fill="#FF5D9E"/>
                    </svg>