<svg width="51" height="51" viewBox="0 0 51 51" fill="none" xmlns="http://www.w3.org/2000/svg">
<path d="M36.55 17H34.8499C34.3808 17 34 17.3808 34 17.85C34 18.3191 34.3808 18.6999 34.8499 18.6999H36.55C37.0191 18.6999 37.3999 18.3191 37.3999 17.85C37.3999 17.3808 37.0192 17 36.55 17Z" fill="#82ACFF"/>
<path d="M36.55 20.4H34.8499C34.3808 20.4 34 20.7808 34 21.2499C34 21.7191 34.3808 22.0999 34.8499 22.0999H36.55C37.0191 22.0999 37.3999 21.7191 37.3999 21.2499C37.4 20.7808 37.0192 20.4 36.55 20.4Z" fill="#82ACFF"/>
<path d="M36.55 13.6H34.8499C34.3808 13.6 34 13.9808 34 14.4499C34 14.9191 34.3808 15.2999 34.8499 15.2999H36.55C37.0191 15.2999 37.3999 14.9191 37.3999 14.4499C37.4 13.9808 37.0192 13.6 36.55 13.6Z" fill="#82ACFF"/>
<path d="M36.55 40.8H34.8499C34.3808 40.8 34 41.1809 34 41.65C34 42.1192 34.3808 42.5 34.8499 42.5H36.55C37.0191 42.5 37.3999 42.1192 37.3999 41.65C37.3999 41.1809 37.0192 40.8 36.55 40.8Z" fill="#82ACFF"/>
<path d="M17.85 13.6H12.75C12.2808 13.6 11.9 13.9808 11.9 14.4499V26.35C11.9 26.8191 12.2808 27.1999 12.75 27.1999H17.85C18.3192 27.1999 18.7 26.8191 18.7 26.35V14.45C18.7 13.9808 18.3192 13.6 17.85 13.6ZM17 25.5H13.6001V15.3H17V25.5Z" fill="#535353"/>
<path d="M17.85 40.8H12.75C12.2808 40.8 11.9 41.1809 11.9 41.65C11.9 42.1192 12.2808 42.5 12.75 42.5H17.85C18.3192 42.5 18.7 42.1192 18.7 41.65C18.7 41.1809 18.3192 40.8 17.85 40.8Z" fill="#82ACFF"/>
<path d="M17.85 44.2H12.75C12.2808 44.2 11.9 44.5808 11.9 45.05C11.9 45.5191 12.2808 45.8999 12.75 45.8999H17.85C18.3192 45.8999 18.7 45.5191 18.7 45.05C18.7 44.5808 18.3192 44.2 17.85 44.2Z" fill="#82ACFF"/>
<path d="M36.55 44.2H34.8499C34.3808 44.2 34 44.5808 34 45.05C34 45.5191 34.3808 45.8999 34.8499 45.8999H36.55C37.0191 45.8999 37.3999 45.5191 37.3999 45.05C37.4 44.5808 37.0192 44.2 36.55 44.2Z" fill="#82ACFF"/>
<path d="M46.75 44.2H43.35C42.8808 44.2 42.5 44.5808 42.5 45.05C42.5 45.5191 42.8808 45.8999 43.35 45.8999H46.75C47.2191 45.8999 47.5999 45.5191 47.5999 45.05C47.6 44.5808 47.2192 44.2 46.75 44.2Z" fill="#FF5D9E"/>
<path d="M28.8999 14.4501C28.8999 13.9809 28.5191 13.6001 28.05 13.6001H24.65C24.1809 13.6001 23.8 13.9809 23.8 14.4501V26.3501C23.8 26.8193 24.1809 27.2001 24.65 27.2001H28.05C28.5191 27.2001 28.8999 26.8193 28.8999 26.3501V14.4501ZM27.2 25.5H25.5V15.3H27.2V25.5Z" fill="#535353"/>
<path d="M46.75 40.8H43.35C42.8808 40.8 42.5 41.1809 42.5 41.65C42.5 42.1192 42.8808 42.5 43.35 42.5H46.75C47.2191 42.5 47.5999 42.1192 47.5999 41.65C47.5999 41.1809 47.2192 40.8 46.75 40.8Z" fill="#FF5D9E"/>
<path d="M28.05 44.2H24.65C24.1809 44.2 23.8 44.5808 23.8 45.05C23.8 45.5191 24.1809 45.8999 24.65 45.8999H28.05C28.5191 45.8999 28.8999 45.5191 28.8999 45.05C28.8999 44.5808 28.5191 44.2 28.05 44.2Z" fill="#FFDB6A"/>
<path d="M43.35 30.6C43.8191 30.6 44.1999 30.2192 44.1999 29.75V21.2501C44.1999 20.7809 43.8191 20.4001 43.35 20.4001C42.8808 20.4001 42.5 20.7809 42.5 21.2501V29.75C42.5 30.2192 42.8808 30.6 43.35 30.6Z" fill="#535353"/>
<path d="M47.6 21.2499C47.6 20.7808 47.2192 20.4 46.7501 20.4C46.2809 20.4 45.9001 20.7808 45.9001 21.2499V29.7499C45.9001 30.2191 46.2809 30.5999 46.7501 30.5999C47.2192 30.5999 47.6 30.2191 47.6 29.7499V21.2499Z" fill="#535353"/>
<path d="M48.45 6.80003H43.35C42.8808 6.80003 42.5 7.18084 42.5 7.65C42.5 8.11916 42.8808 8.49997 43.35 8.49997H48.45C48.9184 8.49997 49.3 8.88157 49.3 9.34993V48.45C49.3 48.9184 48.9184 49.3 48.45 49.3H40.8V13.6H45.9C46.3692 13.6 46.75 13.2192 46.75 12.75C46.75 12.2808 46.3692 11.9 45.9 11.9H40.8V4.25003C40.8 2.82034 39.6797 1.70003 38.25 1.70003H33.15C31.7441 1.70003 30.6 2.84415 30.6 4.25003V49.3001H22.1V5.1H28.05C28.5192 5.1 28.9 4.71919 28.9 4.25003C28.9 3.78087 28.5192 3.40007 28.05 3.40007H22.1V2.55C22.1 1.12031 20.9797 0 19.55 0H11.0501C9.64418 0 8.50007 1.14411 8.50007 2.55V10.2H4.25003C3.78087 10.2 3.40007 10.5808 3.40007 11.05C3.40007 11.5191 3.78087 11.8999 4.25003 11.8999H8.50007V49.3H2.55C2.08164 49.3 1.70003 48.9184 1.70003 48.45V7.65C1.70003 7.18164 2.08164 6.80003 2.55 6.80003H5.94997C6.41913 6.80003 6.79993 6.41923 6.79993 5.95007C6.79993 5.48091 6.41923 5.1 5.94997 5.1H2.55C1.14411 5.1 0 6.24411 0 7.65V48.45C0 49.8559 1.14411 51 2.55 51H48.45C49.8559 51 51 49.8559 51 48.45V9.35003C51 7.94415 49.8559 6.80003 48.45 6.80003ZM20.4 49.3H10.2V6.80003H17.85C18.3192 6.80003 18.7 6.41923 18.7 5.95007C18.7 5.48091 18.3192 5.1 17.85 5.1H10.2V2.55C10.2 2.07317 10.5731 1.70003 11.05 1.70003H19.5499C20.0344 1.70003 20.3999 2.0655 20.3999 2.55V49.3H20.4ZM39.1 49.3H32.2999V8.49997H36.55C37.0191 8.49997 37.3999 8.11916 37.3999 7.65C37.3999 7.18084 37.0191 6.80003 36.55 6.80003H32.2999V4.25003C32.2999 3.7732 32.6731 3.40007 33.1499 3.40007H38.25C38.7345 3.40007 39.1 3.76553 39.1 4.25003V49.3Z" fill="#535353"/>
<path d="M5.94996 40.8H4.25003C3.78087 40.8 3.40006 41.1809 3.40006 41.65C3.40006 42.1192 3.78087 42.5 4.25003 42.5H5.95006C6.41922 42.5 6.80003 42.1192 6.80003 41.65C6.80003 41.1809 6.41922 40.8 5.94996 40.8Z" fill="#FF5D9E"/>
<path d="M5.94996 44.2H4.25003C3.78087 44.2 3.40006 44.5808 3.40006 45.05C3.40006 45.5191 3.78087 45.8999 4.25003 45.8999H5.95006C6.41922 45.8999 6.80003 45.5191 6.80003 45.05C6.80003 44.5808 6.41922 44.2 5.94996 44.2Z" fill="#FF5D9E"/>
<path d="M28.05 40.8H24.65C24.1809 40.8 23.8 41.1809 23.8 41.65C23.8 42.1192 24.1809 42.5 24.65 42.5H28.05C28.5191 42.5 28.8999 42.1192 28.8999 41.65C28.8999 41.1809 28.5191 40.8 28.05 40.8Z" fill="#FFDB6A"/>
<path d="M5.94996 20.4H4.25003C3.78087 20.4 3.40006 20.7808 3.40006 21.2499C3.40006 21.7191 3.78087 22.0999 4.25003 22.0999H5.95006C6.41922 22.0999 6.80003 21.7191 6.80003 21.2499C6.80003 20.7808 6.41922 20.4 5.94996 20.4Z" fill="#FF5D9E"/>
<path d="M5.94996 23.7999H4.25003C3.78087 23.7999 3.40006 24.1807 3.40006 24.6499C3.40006 25.1191 3.78077 25.5 4.25003 25.5H5.95006C6.41922 25.5 6.80003 25.1192 6.80003 24.65C6.80003 24.1808 6.41922 23.7999 5.94996 23.7999Z" fill="#FF5D9E"/>
</svg>
