<svg width="72" height="24" viewBox="0 0 72 24" fill="none" xmlns="http://www.w3.org/2000/svg">
<path d="M37 9.5V7.5C37 6.948 37.448 6.5 38 6.5H39V4H37C35.343 4 34 5.343 34 7V9.5H32V12H34V20H37V12H39L40 9.5H37Z" fill="#8F71FF"/>
<path d="M20 6.539C19.405 6.8 18.771 6.973 18.11 7.057C18.79 6.651 19.309 6.013 19.553 5.244C18.919 5.622 18.219 5.889 17.473 6.038C16.871 5.397 16.013 5 15.077 5C13.261 5 11.799 6.474 11.799 8.281C11.799 8.541 11.821 8.791 11.875 9.029C9.148 8.896 6.735 7.589 5.114 5.598C4.831 6.089 4.665 6.651 4.665 7.256C4.665 8.392 5.25 9.399 6.122 9.982C5.595 9.972 5.078 9.819 4.64 9.578C4.64 9.588 4.64 9.601 4.64 9.614C4.64 11.208 5.777 12.532 7.268 12.837C7.001 12.91 6.71 12.945 6.408 12.945C6.198 12.945 5.986 12.933 5.787 12.889C6.212 14.188 7.418 15.143 8.852 15.174C7.736 16.047 6.319 16.573 4.785 16.573C4.516 16.573 4.258 16.561 4 16.528C5.453 17.465 7.175 18 9.032 18C15.068 18 18.368 13 18.368 8.666C18.368 8.521 18.363 8.381 18.356 8.242C19.007 7.78 19.554 7.203 20 6.539Z" fill="#8F71FF"/>
<path d="M59.5 10V13H63.7435C63.124 14.746 61.456 16 59.5 16C57.019 16 55 13.981 55 11.5C55 9.019 57.019 7 59.5 7C60.5755 7 61.6105 7.3855 62.4145 8.086L64.3855 5.824C63.0355 4.648 61.3015 4 59.5 4C55.3645 4 52 7.3645 52 11.5C52 15.6355 55.3645 19 59.5 19C63.6355 19 67 15.6355 67 11.5V10H59.5Z" fill="#8F71FF"/>
</svg>
