<svg width="51" height="51" viewBox="0 0 51 51" fill="none" xmlns="http://www.w3.org/2000/svg">
<path d="M35.8578 9.6698H19.9438C19.5309 9.6698 19.1962 10.0929 19.1962 10.6149C19.1962 11.1369 19.5309 11.56 19.9438 11.56H35.8577C36.2706 11.56 36.6054 11.1369 36.6054 10.6149C36.6054 10.0928 36.2707 9.6698 35.8578 9.6698Z" fill="#8F71FF"/>
<path d="M16.4652 9.6698H13.9445C13.5316 9.6698 13.1969 10.0929 13.1969 10.6149C13.1969 11.1369 13.5315 11.56 13.9445 11.56H16.4652C16.8781 11.56 17.2128 11.1369 17.2128 10.6149C17.2128 10.0929 16.8781 9.6698 16.4652 9.6698Z" fill="#82ACFF"/>
<path d="M21.7637 38.6399H13.9445C13.5316 38.6399 13.1969 39.063 13.1969 39.585C13.1969 40.1071 13.5316 40.5301 13.9445 40.5301H21.7637C22.1766 40.5301 22.5113 40.107 22.5113 39.585C22.5113 39.0629 22.1766 38.6399 21.7637 38.6399Z" fill="#8F71FF"/>
<path d="M24.9011 28.9833H13.9445C13.5316 28.9833 13.1969 29.4064 13.1969 29.9284C13.1969 30.4505 13.5316 30.8735 13.9445 30.8735H24.9011C25.3139 30.8735 25.6487 30.4504 25.6487 29.9284C25.6487 29.4063 25.314 28.9833 24.9011 28.9833Z" fill="#8F71FF"/>
<path d="M30.2345 19.3264H13.9445C13.5316 19.3264 13.1969 19.7495 13.1969 20.2715C13.1969 20.7935 13.5316 21.2167 13.9445 21.2167H30.2345C30.6474 21.2168 30.9821 20.7937 30.9821 20.2715C30.9821 19.7494 30.6474 19.3264 30.2345 19.3264Z" fill="#8F71FF"/>
<path d="M44.3825 0H13.4866C10.7499 0 8.52353 2.81484 8.52353 6.2747V43.463H0.747511C0.547993 43.463 0.356643 43.5638 0.216293 43.743C0.0758439 43.9224 -0.00205073 44.1652 4.10675e-05 44.4174C0.0295255 48.1702 2.16266 51 4.96189 51H35.8578H35.9519C38.6886 51 40.915 48.1852 40.915 44.7253V33.2727C40.915 32.7507 40.5802 32.3277 40.1673 32.3277C39.7544 32.3277 39.4197 32.7508 39.4197 33.2728V44.7254C39.4197 47.1431 37.864 49.1098 35.9519 49.1098H35.8578C33.9026 49.1098 32.4122 47.0844 32.3911 44.3988C32.387 43.8804 32.0535 43.463 31.6435 43.463H10.0191V6.27457C10.0191 3.85692 11.5748 1.89024 13.4869 1.89024H40.8355C40.8136 1.91858 40.7928 1.9483 40.7713 1.97726C40.7452 2.0124 40.7188 2.04715 40.6933 2.08292C40.6663 2.12082 40.6403 2.15974 40.6141 2.19852C40.5889 2.23567 40.5635 2.27245 40.539 2.31035C40.5136 2.34964 40.4893 2.38994 40.4646 2.42999C40.4407 2.46877 40.4166 2.50718 40.3934 2.54673C40.3697 2.58728 40.347 2.62871 40.324 2.67001C40.3014 2.71056 40.2785 2.75086 40.2565 2.79204C40.2345 2.83373 40.2135 2.87629 40.1923 2.91873C40.1711 2.96092 40.1496 3.00273 40.1291 3.04554C40.1086 3.08861 40.0893 3.13256 40.0697 3.17626C40.0501 3.21971 40.0299 3.2629 40.0111 3.30711C39.9922 3.35131 39.9747 3.39652 39.9566 3.44147C39.9386 3.48631 39.9201 3.53076 39.9029 3.5761C39.8857 3.62168 39.8699 3.66815 39.8534 3.71424C39.8371 3.76021 39.8203 3.8058 39.8048 3.85226C39.7892 3.89924 39.775 3.94709 39.7603 3.99457C39.7458 4.04142 39.7307 4.08788 39.7171 4.13523C39.703 4.18384 39.6906 4.23334 39.6775 4.28257C39.665 4.32993 39.6517 4.37677 39.64 4.42463C39.6276 4.475 39.617 4.52625 39.6056 4.57726C39.595 4.62486 39.5837 4.67208 39.5739 4.72019C39.5633 4.77308 39.5543 4.82673 39.5446 4.88012C39.5362 4.9271 39.5268 4.97382 39.5192 5.02117C39.5103 5.0767 39.5032 5.13287 39.4954 5.18891C39.4891 5.23525 39.4817 5.28109 39.4761 5.32769C39.4689 5.3875 39.4638 5.44808 39.4579 5.5084C39.4537 5.55197 39.4484 5.59504 39.4449 5.63886C39.4395 5.70636 39.4363 5.77462 39.4326 5.84275C39.4306 5.88015 39.4274 5.9173 39.4259 5.95483C39.4217 6.06074 39.4195 6.1674 39.4195 6.2747V6.59192V14.6633C39.4195 15.1854 39.7542 15.6084 40.1671 15.6084C40.58 15.6084 40.9147 15.1853 40.9147 14.6633V7.53704H48.6048C48.8043 7.53704 48.9957 7.43617 49.136 7.25697C49.2765 7.07764 49.3544 6.83484 49.3523 6.5826C49.3228 2.82982 47.1897 0 44.3825 0ZM30.948 45.3533C30.9583 45.4512 30.9702 45.548 30.9835 45.6442C30.9879 45.6765 30.9933 45.7081 30.998 45.7402C31.0075 45.8038 31.017 45.8674 31.0277 45.9301C31.0341 45.9678 31.0414 46.0048 31.0481 46.0421C31.0585 46.0986 31.069 46.1551 31.0804 46.2109C31.0884 46.2501 31.097 46.2889 31.1055 46.3277C31.1172 46.3808 31.1289 46.4338 31.1415 46.4863C31.1508 46.5258 31.1607 46.5649 31.1707 46.604C31.1836 46.6551 31.1971 46.706 31.2109 46.7565C31.2216 46.7954 31.2324 46.8342 31.2437 46.8727C31.2582 46.9228 31.2733 46.9724 31.2887 47.0218C31.3005 47.0593 31.3121 47.0969 31.3243 47.134C31.3407 47.184 31.3578 47.2334 31.3751 47.2827C31.3874 47.3181 31.3997 47.3536 31.4125 47.3886C31.4314 47.4403 31.4514 47.4912 31.4712 47.5419C31.4835 47.5734 31.4954 47.6051 31.5081 47.6364C31.5324 47.6959 31.5578 47.7545 31.5834 47.8129C31.5927 47.8342 31.6016 47.8559 31.611 47.8769C31.6466 47.956 31.6834 48.0338 31.7213 48.1104C31.7302 48.1282 31.7396 48.1454 31.7486 48.1631C31.7782 48.2217 31.8082 48.2799 31.8391 48.3369C31.8535 48.3632 31.8684 48.3888 31.883 48.4149C31.9097 48.4625 31.9364 48.5099 31.9641 48.5564C31.9807 48.5844 31.9977 48.6116 32.0147 48.6392C32.0413 48.6826 32.0682 48.7259 32.0957 48.7682C32.1139 48.7961 32.1323 48.8235 32.1507 48.851C32.1782 48.892 32.2061 48.9326 32.2344 48.9726C32.2534 48.9996 32.2727 49.0261 32.2922 49.0526C32.306 49.0715 32.3194 49.0911 32.3334 49.1098H4.96179C3.24612 49.1098 1.88834 47.5501 1.5671 45.3533H30.948ZM40.9515 5.64655C40.9518 5.64012 40.9523 5.63345 40.953 5.6269C40.9564 5.59806 40.9606 5.56948 40.9645 5.54089C40.9698 5.50059 40.9753 5.46029 40.9816 5.42025C40.9864 5.38977 40.9918 5.35955 40.997 5.32932C41.0036 5.2918 41.0103 5.25439 41.0176 5.21724C41.0237 5.18601 41.0303 5.15491 41.037 5.12393C41.0447 5.08854 41.0525 5.05315 41.0608 5.01815C41.0683 4.98641 41.0761 4.95493 41.0842 4.92357C41.0928 4.89007 41.1017 4.85683 41.111 4.82358C41.12 4.79147 41.129 4.75935 41.1386 4.72762C41.1479 4.69626 41.1578 4.66528 41.1678 4.63418C41.1782 4.60144 41.1887 4.56882 41.1998 4.53645C41.2097 4.50762 41.2202 4.47916 41.2305 4.45069C41.2428 4.41707 41.2549 4.38319 41.2678 4.35007C41.2773 4.32539 41.2876 4.30121 41.2976 4.27678C41.3123 4.24051 41.3269 4.20425 41.3424 4.16861C41.3484 4.15475 41.3549 4.14141 41.361 4.12768C41.43 3.97316 41.5058 3.82406 41.5887 3.68188C41.5895 3.68049 41.5902 3.67923 41.591 3.67785C41.6177 3.63226 41.6453 3.58756 41.6733 3.54323C41.6778 3.53618 41.6821 3.529 41.6865 3.52194C41.7139 3.47913 41.7422 3.43719 41.7708 3.39576C41.7761 3.38808 41.7814 3.38027 41.7868 3.37259C41.8158 3.33103 41.8456 3.29036 41.876 3.25018C41.881 3.24363 41.8859 3.23696 41.8909 3.23041C41.9224 3.18936 41.9545 3.14893 41.9872 3.10939C41.9908 3.10498 41.9945 3.10058 41.9982 3.09604C42.0327 3.05474 42.0677 3.01419 42.1036 2.97464C42.1048 2.97326 42.1061 2.972 42.1073 2.97061C42.5651 2.46651 43.1285 2.111 43.7503 1.96467C43.7506 1.96454 43.7509 1.96454 43.7512 1.96442C43.8021 1.95245 43.8535 1.94187 43.9052 1.93281C43.9083 1.9323 43.9114 1.9318 43.9145 1.9313C43.9638 1.92273 44.0134 1.91543 44.0633 1.90951C44.0709 1.90863 44.0786 1.90812 44.0862 1.90737C44.132 1.90233 44.1778 1.89805 44.224 1.89528C44.2507 1.89377 44.2776 1.89352 44.3045 1.89263C44.3334 1.89175 44.3622 1.89012 44.3912 1.89012C46.1069 1.89012 47.4647 3.44979 47.7859 5.64655H40.9515Z" fill="#535353"/>
<path d="M50.9993 17.419C50.9992 17.4081 50.999 17.3971 50.9987 17.386C50.9957 17.2971 50.9831 17.2115 50.9619 17.1304C50.9609 17.1264 50.9605 17.1222 50.9594 17.1183C50.9585 17.115 50.957 17.112 50.9561 17.1087C50.9443 17.0673 50.9308 17.027 50.9149 16.9885C50.9129 16.9837 50.9106 16.9793 50.9086 16.9745C50.8938 16.9405 50.8775 16.9079 50.8597 16.8765C50.8559 16.8698 50.8523 16.8629 50.8484 16.8564C50.8288 16.8236 50.8075 16.7926 50.7847 16.7634C50.7797 16.757 50.7744 16.7511 50.7693 16.7449C50.7478 16.7187 50.7251 16.6942 50.7012 16.6714C50.698 16.6683 50.695 16.6649 50.6917 16.6619C50.6648 16.6372 50.6364 16.6152 50.607 16.5951C50.6013 16.5912 50.5956 16.5876 50.5898 16.584C50.5599 16.5648 50.5292 16.5473 50.497 16.5334C50.4968 16.5332 50.4966 16.5331 50.4964 16.5331C50.4644 16.5192 50.4313 16.5088 50.3975 16.5004C50.39 16.4985 50.3825 16.4968 50.375 16.4953C50.3412 16.4883 50.3069 16.483 50.2718 16.4818C44.0165 16.2772 35.8599 18.1809 31.7361 24.1325C29.9314 26.7371 29.0987 30.0416 28.2934 33.2371C28.2275 33.4987 28.1616 33.7601 28.0952 34.0212C28.0924 34.0321 28.0897 34.0432 28.0872 34.0544L26.8238 39.7275C26.7119 40.2299 26.9434 40.752 27.3408 40.8935C27.4085 40.9177 27.4767 40.9291 27.5438 40.9291C27.8702 40.9291 28.1702 40.6565 28.2631 40.2397L29.4349 34.978C30.8673 34.1292 32.0208 33.7323 33.5789 33.1967C34.3871 32.9186 35.3033 32.6038 36.4118 32.1727C38.8084 31.2408 43.406 27.342 45.5219 24.4472C47.3724 21.9152 48.9296 20.0335 50.7286 18.1555C50.7307 18.1533 50.7323 18.1507 50.7344 18.1484C50.7606 18.1203 50.7855 18.0905 50.8084 18.0581C50.8098 18.0561 50.8113 18.0544 50.8127 18.0525C50.8353 18.0201 50.8558 17.9853 50.8748 17.9491C50.8783 17.9424 50.8817 17.9357 50.8851 17.9289C50.9209 17.8568 50.9492 17.7783 50.9687 17.6947C50.9706 17.6868 50.9724 17.679 50.9741 17.6709C50.9828 17.6298 50.99 17.588 50.9942 17.545C50.9944 17.5432 50.9944 17.5416 50.9945 17.5398C50.9973 17.5106 50.9993 17.481 50.9999 17.451C51.0002 17.4402 50.9994 17.4296 50.9993 17.419ZM32.8609 25.3779C34.601 22.8665 37.2681 20.9733 40.7881 19.7513C41.734 19.4229 42.7337 19.1503 43.764 18.9353C41.1462 20.5403 38.6431 22.5505 37.2442 23.7319C34.9868 25.6385 32.5499 27.9512 30.7504 30.0082C31.2829 28.3028 31.9267 26.7263 32.8609 25.3779ZM44.4238 23.1642C42.3645 25.9817 37.9168 29.6098 35.9723 30.3657C34.8872 30.7876 33.9837 31.0984 33.1865 31.3724C32.4653 31.6204 31.8092 31.8463 31.1603 32.1068C31.4506 31.7553 31.7908 31.3612 32.1919 30.9188C33.8062 29.1387 35.8954 27.1445 38.0748 25.3039C41.8482 22.1169 45.263 19.8799 47.7683 18.9101C46.6803 20.1769 45.6101 21.541 44.4238 23.1642Z" fill="#009C8E"/>
</svg>
