<svg width="16" height="16" viewBox="0 0 16 16" fill="none" xmlns="http://www.w3.org/2000/svg">
<path d="M10.0666 8.20002C9.93329 8.06669 9.93329 7.86669 10.0666 7.73335L15.0666 2.73335C15.2 2.60002 15.2666 2.40002 15.2666 2.26669C15.2666 2.13335 15.2 1.93335 15.0666 1.80002L14.1333 0.866687C14 0.733354 13.8 0.666687 13.6666 0.666687C13.4666 0.666687 13.3333 0.733354 13.2 0.866687L8.19996 5.86669C8.06663 6.00002 7.86663 6.00002 7.73329 5.86669L2.73329 0.866687C2.59996 0.733354 2.39996 0.666687 2.26663 0.666687C2.13329 0.666687 1.93329 0.733354 1.79996 0.866687L0.866626 1.80002C0.733293 1.93335 0.666626 2.13335 0.666626 2.26669C0.666626 2.40002 0.733293 2.60002 0.866626 2.73335L5.86663 7.73335C5.99996 7.86669 5.99996 8.06669 5.86663 8.20002L0.866626 13.2C0.733293 13.3334 0.666626 13.5334 0.666626 13.6667C0.666626 13.8 0.733293 14 0.866626 14.1334L1.79996 15.0667C1.93329 15.2 2.13329 15.2667 2.26663 15.2667C2.39996 15.2667 2.59996 15.2 2.73329 15.0667L7.73329 10.0667C7.86663 9.93335 8.06663 9.93335 8.19996 10.0667L13.2 15.0667C13.3333 15.2 13.5333 15.2667 13.6666 15.2667C13.8 15.2667 14 15.2 14.1333 15.0667L15.0666 14.1334C15.2 14 15.2666 13.8 15.2666 13.6667C15.2666 13.5334 15.2 13.3334 15.0666 13.2L10.0666 8.20002Z" fill="#FF5D5D"/>
</svg>
