<svg width="55" height="47" viewBox="0 0 55 47" fill="none" xmlns="http://www.w3.org/2000/svg">
<path d="M40.3886 18.1503C40.6733 17.7514 40.626 17.1597 40.283 16.8286C39.9401 16.4976 39.4314 16.5524 39.1467 16.9513L35.9881 21.3782C35.6106 21.9073 35.4807 22.6186 35.6409 23.2805C35.8011 23.9425 36.2306 24.4704 36.7901 24.6928L38.8801 25.5238C38.9666 25.5581 39.0547 25.5744 39.1412 25.5744C39.4767 25.5744 39.7902 25.329 39.9047 24.9391C40.0489 24.4485 39.8238 23.915 39.4022 23.7473L37.3121 22.9163C37.2365 22.8864 37.2065 22.8213 37.1944 22.7718C37.1824 22.7224 37.179 22.6486 37.2301 22.577L40.3886 18.1503Z" fill="#FFDB6A"/>
<path d="M37.9011 12.7693C37.4588 11.7203 36.3619 10.5016 33.6353 10.65C32.1714 10.7301 30.8793 11.1695 30.825 11.1881C30.3977 11.335 30.1537 11.8571 30.28 12.3543C30.4064 12.8512 30.855 13.1353 31.2826 12.9883C31.294 12.9844 32.4399 12.5947 33.7113 12.5251C34.6399 12.4743 35.8041 12.5861 36.3194 13.3501C36.2942 13.5396 36.3187 13.7397 36.4001 13.923C36.5434 14.2459 36.8254 14.431 37.1176 14.4309C37.2423 14.4309 37.369 14.3972 37.4874 14.3261C37.9661 14.0383 38.1479 13.3546 37.9011 12.7693Z" fill="#FFDB6A"/>
<path d="M49.7648 18.7172C49.7317 18.6638 48.9411 17.3964 47.8254 16.291C45.7496 14.2338 44.2386 14.4155 43.3368 14.9302C42.8338 15.2172 42.6176 15.8872 42.8447 16.4556C43.0323 16.9257 43.5123 17.1298 43.9164 16.9114C44.0775 16.8243 44.2022 16.6833 44.2822 16.5154C45.7362 16.0863 47.8108 18.7787 48.4562 19.8159C48.6139 20.07 48.8606 20.2049 49.1109 20.2049C49.2745 20.2049 49.4396 20.1473 49.5823 20.0275C49.9438 19.7242 50.0255 19.1375 49.7648 18.7172Z" fill="#FFDB6A"/>
<path d="M19.3315 27.9282C19.2036 27.4317 18.7536 27.1505 18.3266 27.299L16.2112 28.0374C16.1343 28.064 16.0776 28.0314 16.0431 27.9994C16.0087 27.9673 15.9689 27.9097 15.9746 27.817L16.3298 22.0789C16.3618 21.5618 16.0274 21.1125 15.583 21.0752C15.1368 21.038 14.7522 21.427 14.7202 21.944L14.365 27.6822C14.3225 28.3681 14.5726 29.0343 15.034 29.4643C15.3571 29.7654 15.7546 29.9237 16.1585 29.9237C16.3313 29.9237 16.5055 29.8948 16.6752 29.8355L18.7907 29.097C19.2174 28.948 19.4597 28.4247 19.3315 27.9282Z" fill="#8F71FF"/>
<path d="M12.2409 21.0817C12.1277 20.7691 11.903 20.5322 11.6244 20.4318C8.56764 19.3304 5.15839 22.3559 5.01466 22.4852C4.66253 22.8022 4.59829 23.3906 4.87029 23.8005C5.14217 24.2104 5.64888 24.2863 6.00166 23.9704C6.00907 23.9638 6.76081 23.2953 7.80108 22.7535C8.50373 22.3875 9.46064 22.0195 10.386 22.0732L10.0125 22.9222C9.80944 23.3836 9.96649 23.9492 10.3632 24.1853C10.4808 24.2554 10.6064 24.2887 10.7303 24.2887C11.0235 24.2887 11.3064 24.102 11.4492 23.7775L12.2102 22.0479C12.343 21.7463 12.3542 21.3941 12.2409 21.0817Z" fill="#8F71FF"/>
<path d="M24.0947 15.8244C23.9134 15.8085 19.6352 15.4667 17.6053 18.344C17.4202 18.6063 17.3448 18.9482 17.3984 19.2818C17.4519 19.6151 17.628 19.9018 17.8813 20.0683L19.3351 21.0245C19.4607 21.1071 19.597 21.1464 19.7316 21.1464C20.0129 21.1464 20.2863 20.9748 20.4346 20.6696C20.654 20.2183 20.5175 19.6457 20.1296 19.3905L19.4138 18.9197C21.0894 17.4767 23.9267 17.6926 23.9735 17.6965C24.418 17.7344 24.8047 17.3479 24.8383 16.8313C24.872 16.3144 24.5391 15.8636 24.0947 15.8244Z" fill="#8F71FF"/>
<path d="M40.5315 30.0988C39.7937 28.3493 38.5143 27.0388 36.9292 26.4087C35.3437 25.7784 33.6427 25.9041 32.1387 26.7624C31.4017 27.183 30.7561 27.7557 30.2248 28.4464L30.2843 28.1294C31.0048 24.7842 30.4965 21.2046 28.8891 18.3063C28.2371 17.1308 27.7966 15.8372 27.5794 14.4613L27.1782 11.9186C26.5332 7.83258 23.4731 4.84404 19.9018 4.81255C13.9662 4.7627 8.22947 6.76409 3.30234 10.6073C0.335883 12.9208 -0.803864 17.3756 0.592084 21.1995L1.46081 23.579C1.93088 24.8667 2.17538 26.2289 2.18752 27.6275C2.21781 31.0765 3.48797 34.3899 5.67304 36.721L12.4764 44.4379C13.9455 46.104 15.898 47.0002 17.8931 46.9999C18.6372 46.9999 19.3874 46.8752 20.1202 46.6194L22.9101 45.6455C25.6081 44.7036 27.6573 42.1298 28.258 38.9285L29.5275 32.1627C29.6533 32.2007 29.7868 32.2053 29.9176 32.169C33.3012 31.2284 36.8347 32.527 39.1395 35.558L39.4677 35.9894C39.6225 36.193 39.8434 36.3061 40.072 36.3061C40.1246 36.3061 40.1776 36.3001 40.2304 36.2878C40.5121 36.2222 40.7427 35.9873 40.8356 35.6711C41.3773 33.8271 41.2695 31.8482 40.5315 30.0988ZM28.716 27.6855C28.7139 27.6951 28.7119 27.7048 28.7101 27.7146L26.6811 38.5281C26.2054 41.0633 24.5825 43.1015 22.4461 43.8475L19.6562 44.8213C17.52 45.5672 15.2003 44.9053 13.603 43.0937L6.79055 35.3667C6.78432 35.3597 6.77819 35.3528 6.77186 35.3462C4.9097 33.3645 3.82699 30.5441 3.80132 27.6085C3.78703 25.963 3.49935 24.3604 2.94624 22.8452L2.07752 20.4657C0.983745 17.4697 1.87685 13.9793 4.20093 12.1665C8.79869 8.58031 14.1449 6.68887 19.6756 6.68887C19.7467 6.68887 19.8181 6.68912 19.8894 6.68987C22.6875 6.71449 25.0852 9.05613 25.5905 12.2576L25.9917 14.8003C26.2472 16.4189 26.7657 17.941 27.5327 19.324C28.9011 21.7909 29.3323 24.8386 28.716 27.6855ZM32.1113 29.9903C31.8044 29.9901 31.4966 30.0051 31.1886 30.0354C31.6219 29.3696 32.1863 28.8262 32.8495 28.4477C33.9665 27.8104 35.2302 27.717 36.4072 28.185C37.5846 28.653 38.5347 29.6263 39.0826 30.9255C39.4099 31.7015 39.5703 32.5386 39.5607 33.3785C37.5167 31.1852 34.8553 29.9903 32.1113 29.9903Z" fill="#535353"/>
<path d="M24.0333 30.5133C23.9507 30.1933 23.7279 29.9484 23.4485 29.8704C23.1687 29.7923 22.8749 29.8933 22.6766 30.1352L22.3347 30.5519C19.9332 33.4797 16.3598 34.6222 13.0093 33.5335C12.7256 33.4413 12.422 33.5361 12.2162 33.7803C12.0102 34.0244 11.9348 34.3797 12.0193 34.7073C12.8337 37.8637 15.3317 39.9063 18.0295 39.9063C18.6248 39.9063 19.2303 39.8067 19.8291 39.5976C23.1412 38.4414 25.0272 34.3662 24.0333 30.5133ZM19.3651 37.7997C18.1736 38.2158 16.9141 38.0671 15.8185 37.3811C15.1681 36.9737 14.6216 36.4061 14.2102 35.7217C17.2604 36.1555 20.3332 35.0859 22.6829 32.7504C22.6309 35.0258 21.3389 37.1105 19.3651 37.7997Z" fill="#535353"/>
<path d="M51.929 6.52338C47.1299 2.46661 41.459 0.212303 35.5294 0.00400383C31.9589 -0.121825 28.8045 2.73076 28.0276 6.78566L27.589 9.07457C27.492 9.58051 27.766 10.0821 28.2009 10.1949C28.6365 10.3076 29.0672 9.98886 29.1641 9.48292L29.6027 7.19413C30.2114 4.01704 32.6802 1.78098 35.4805 1.88057C41.0847 2.07737 46.4444 4.2081 50.9801 8.0422C53.2437 9.95588 54.0228 13.4828 52.8327 16.4288L51.8874 18.7684C51.2856 20.258 50.9461 21.8468 50.8784 23.4907C50.7575 26.4231 49.5841 29.1939 47.659 31.0924C47.6524 31.0988 47.646 31.1054 47.6397 31.112L40.5812 38.5346C38.9264 40.2747 36.5869 40.8344 34.4763 39.9952L31.7198 38.8993C31.6322 38.8646 31.5458 38.8277 31.4603 38.7886C31.046 38.5993 30.5772 38.8367 30.4144 39.3194C30.2515 39.802 30.4558 40.3467 30.8707 40.5361C30.9791 40.5856 31.0894 40.6327 31.1981 40.6758L33.9544 41.7715C34.7737 42.0973 35.6198 42.256 36.4602 42.256C38.3537 42.256 40.2162 41.449 41.6635 39.9271L48.7127 32.5144C50.9718 30.281 52.3484 27.0255 52.4904 23.5804C52.5481 22.1832 52.8367 20.8328 53.3481 19.5667L54.2934 17.2271C55.8124 13.4672 54.818 8.96561 51.929 6.52338Z" fill="#535353"/>
</svg>
