<svg width="51" height="51" viewBox="0 0 51 51" fill="none" xmlns="http://www.w3.org/2000/svg">
<path d="M50.2534 24.1204C49.6917 23.9613 49.2153 24.3174 49.0236 24.8398C48.6946 25.7365 47.4571 26.2728 46.5618 26.3931C45.2134 26.5743 43.8994 25.966 42.7081 25.3966C41.2948 24.7213 39.8382 24.0769 38.2494 24.0906C36.6507 24.1045 35.09 24.7625 33.788 25.6875C32.3224 26.7288 31.145 28.0875 29.993 29.4704C29.6416 29.8922 29.5907 30.5125 29.993 30.927C30.3528 31.2977 31.0537 31.3509 31.4069 30.927C33.2566 28.7062 35.6946 25.7766 38.8739 26.1798C40.375 26.3702 41.7195 27.2333 43.0973 27.8094C44.5136 28.4016 46.0671 28.6815 47.5681 28.2751C49.056 27.8722 50.3965 26.8998 50.9515 25.3873C51.1426 24.867 50.7396 24.258 50.2534 24.1204Z" fill="#8F71FF"/>
<path d="M20.5719 13.2422C21.5171 11.8935 22.5246 10.453 22.8122 8.77738C23.0912 7.15192 22.6831 5.51498 21.8043 4.14639C20.7907 2.56804 19.3194 1.4322 17.8672 0.313603C17.4344 -0.0197178 16.7502 0.241254 16.4994 0.683048C16.2007 1.2091 16.4243 1.75813 16.8581 2.09227C19.0925 3.81337 21.8867 6.20799 20.5429 9.41282C19.3495 12.259 16.2445 14.5483 16.6327 17.962C16.8197 19.6068 17.7671 21.0941 19.3812 21.5335C20.6265 21.8725 21.1576 19.886 19.9128 19.547C18.9043 19.2725 18.5059 18.1374 18.6137 17.1419C18.7704 15.6966 19.7684 14.3888 20.5719 13.2422Z" fill="#FFDB6A"/>
<path d="M34.9224 15.7436C34.7603 14.3744 34.008 13.1343 32.8839 12.3811C32.2576 11.9614 31.5761 11.7406 30.8848 11.684C31.2267 10.5231 31.8666 9.45629 32.802 8.71792C33.23 8.38018 33.4575 7.83125 33.1607 7.30869C32.9144 6.8748 32.2242 6.59874 31.7929 6.93914C30.1969 8.19895 29.131 10.0058 28.7491 12.0033C27.4441 12.4923 26.2836 13.4799 25.6148 14.7065C23.8172 18.0033 24.9531 21.8573 26.7617 24.8543C27.4397 25.9779 29.1703 24.9448 28.4882 23.8147C27.3086 21.8598 26.3142 19.5162 26.8292 17.1697C27.0793 16.031 27.7134 14.9637 28.619 14.3316C28.7063 15.4619 29.0145 16.578 29.5507 17.5689C30.295 18.9442 31.7078 20.086 33.2689 19.317C34.5292 18.6962 35.0829 17.0993 34.9224 15.7436ZM32.6971 17.164C32.1529 17.964 31.5811 17.0917 31.2772 16.529C30.8634 15.7629 30.6396 14.8895 30.5997 14.0179C30.5956 13.9276 30.5951 13.8367 30.5945 13.7456C30.6438 13.7477 30.6931 13.75 30.7429 13.7543C32.2081 13.881 33.6304 15.792 32.6971 17.164Z" fill="#FF5D9E"/>
<path d="M38.9866 18.5563C37.7 18.5563 37.6978 20.6163 38.9866 20.6163C40.2731 20.6162 40.2752 18.5563 38.9866 18.5563Z" fill="#8F71FF"/>
<path d="M40.2337 15.576C38.9472 15.576 38.9451 17.6361 40.2337 17.6361C41.5203 17.6361 41.5225 15.576 40.2337 15.576Z" fill="#FFDB6A"/>
<path d="M42.1872 18.2042C40.9006 18.2042 40.8985 20.2643 42.1872 20.2643C43.4738 20.2643 43.4759 18.2042 42.1872 18.2042Z" fill="#8F71FF"/>
<path d="M8.93077 9.77502C7.64421 9.77502 7.64202 11.8351 8.93077 11.8351C10.2174 11.8351 10.2195 9.77502 8.93077 9.77502Z" fill="#FF5D9E"/>
<path d="M10.1779 6.79492C8.8913 6.79492 8.88921 8.85499 10.1779 8.85499C11.4645 8.85488 11.4667 6.79492 10.1779 6.79492Z" fill="#8F71FF"/>
<path d="M12.1314 9.42297C10.8449 9.42297 10.8428 11.483 12.1314 11.483C13.418 11.483 13.4201 9.42297 12.1314 9.42297Z" fill="#8F71FF"/>
<path d="M28.2233 35.6011L14.9465 21.9226C14.7192 21.6886 14.3965 21.5811 14.0791 21.6344C13.7618 21.6875 13.4886 21.8945 13.3451 22.1909L12.1513 24.6537L0.105333 49.5098C-0.0868144 49.9062 -0.0113102 50.3849 0.292898 50.6983C0.484746 50.896 0.740544 51 1.00003 51C1.15163 51 1.30443 50.9645 1.44628 50.8914L27.9629 37.251C28.2505 37.1031 28.4516 36.8217 28.5031 36.4948C28.5548 36.1678 28.4506 35.8354 28.2233 35.6011ZM3.23158 47.6705L7.55225 38.7553L9.01104 44.6976L3.23158 47.6705ZM19.7307 39.1832L18.0284 34.9088C17.8187 34.3826 17.2349 34.1309 16.724 34.3469C16.2132 34.5628 15.969 35.1645 16.1786 35.6907L17.937 40.1059L10.8423 43.7554L8.92119 35.9302L12.9572 27.6022L14.0677 30.3907C14.2264 30.789 14.5995 31.0301 14.993 31.0301C15.1194 31.0301 15.2479 31.0052 15.3721 30.9527C15.8829 30.7368 16.1272 30.1351 15.9176 29.6088L14.1436 25.1545L14.514 24.3904L25.828 36.0468L19.7307 39.1832Z" fill="#535353"/>
<path d="M46.8767 33.4425C44.6462 33.4425 42.8316 35.312 42.8316 37.6099C42.8316 39.9084 44.6462 41.7784 46.8767 41.7784C49.1077 41.7784 50.9227 39.9084 50.9227 37.6099C50.9227 35.312 49.1077 33.4425 46.8767 33.4425ZM46.8767 39.7183C45.7488 39.7183 44.8312 38.7725 44.8312 37.6099C44.8312 36.4479 45.7489 35.5026 46.8767 35.5026C48.005 35.5026 48.9231 36.4479 48.9231 37.6099C48.9231 38.7725 48.0051 39.7183 46.8767 39.7183Z" fill="#009C8E"/>
<path d="M45.8041 4.44442L41.783 0.301713C41.5955 0.108576 41.3412 0 41.076 0C40.8108 0 40.5566 0.108576 40.3691 0.301816L36.349 4.44452C35.9587 4.84671 35.9588 5.49888 36.3491 5.90116L40.3692 10.0428C40.5644 10.244 40.8203 10.3446 41.0761 10.3446C41.3319 10.3446 41.5878 10.244 41.7829 10.0429L45.804 5.90127C45.9916 5.70813 46.0969 5.44613 46.0969 5.17284C46.0968 4.89966 45.9914 4.63766 45.8041 4.44442ZM41.0763 7.85799L38.47 5.17274L41.0763 2.48688L43.6833 5.17274L41.0763 7.85799Z" fill="#82ACFF"/>
<path d="M15.9628 31.6458C14.6762 31.6458 14.6741 33.7058 15.9628 33.7058C17.2493 33.7058 17.2514 31.6458 15.9628 31.6458Z" fill="#535353"/>
</svg>
