<svg width="152" height="24" viewBox="0 0 152 24" fill="none" xmlns="http://www.w3.org/2000/svg">
<path d="M6.55933 14.8771V8.32373H3.51258C3.51258 7.27405 3.72801 6.39458 4.15886 5.68534C4.58971 4.94772 5.38987 4.39451 6.55933 4.02571V1.2171C5.6053 1.33058 4.71281 1.60009 3.88188 2.02563C3.08172 2.42281 2.38928 2.93347 1.80455 3.55761C1.21982 4.18174 0.758191 4.90517 0.419663 5.72789C0.11191 6.55061 -0.0265786 7.43007 0.00419662 8.36628V14.8771H6.55933ZM16.392 14.8771V8.32373H13.3453C13.3453 7.27405 13.5607 6.39458 13.9916 5.68534C14.4224 4.94772 15.2226 4.39451 16.392 4.02571V1.2171C15.438 1.33058 14.5455 1.60009 13.7146 2.02563C12.9144 2.42281 12.222 2.93347 11.6373 3.55761C11.0525 4.18174 10.5909 4.90517 10.2524 5.72789C9.94461 6.55061 9.80612 7.43007 9.8369 8.36628V14.8771H16.392Z" fill="#8F71FF"/>
<path d="M145.067 17.6092V11.0558H148.114C148.114 10.0061 147.898 9.12664 147.467 8.41739C147.037 7.67978 146.236 7.12657 145.067 6.75776V3.94916C146.021 4.06264 146.913 4.33214 147.744 4.75769C148.545 5.15486 149.237 5.66553 149.822 6.28966C150.406 6.9138 150.868 7.63722 151.207 8.45994C151.514 9.28267 151.653 10.1621 151.622 11.0983V17.6092H145.067ZM135.234 17.6092V11.0558H138.281C138.281 10.0061 138.066 9.12664 137.635 8.41739C137.204 7.67978 136.404 7.12657 135.234 6.75776V3.94916C136.188 4.06264 137.081 4.33214 137.912 4.75769C138.712 5.15486 139.404 5.66553 139.989 6.28966C140.574 6.9138 141.035 7.63722 141.374 8.45994C141.682 9.28267 141.82 10.1621 141.789 11.0983V17.6092H135.234Z" fill="#8F71FF"/>
<path d="M28.7311 7.17374C29.43 7.17374 30.0901 7.30011 30.7113 7.55284V2.59538H29.2262L28.9058 0.61239L33.2157 0L34.2349 1.07898V18.4301C34.2349 18.8578 34.4193 19.0717 34.7882 19.0717C34.9823 19.0717 35.1959 19.0133 35.4288 18.8967L35.9821 20.4131C35.6521 20.8602 35.1085 21.2102 34.3514 21.4629C34.0602 21.5601 33.7398 21.6087 33.3904 21.6087C32.3032 21.6087 31.5364 21.2004 31.0899 20.3839C30.391 21.2004 29.3621 21.6087 28.0031 21.6087C26.3529 21.6087 25.0231 20.9963 24.0136 19.7715C22.9846 18.5079 22.4702 16.8068 22.4702 14.6683C22.4702 12.0243 23.1788 10.0413 24.596 8.71931C25.7026 7.68893 27.0809 7.17374 28.7311 7.17374ZM30.7113 10.469C30.2842 10.0802 29.7115 9.88577 28.9932 9.88577C27.6731 9.88577 26.7897 10.6926 26.3432 12.3062C26.1685 12.9283 26.0811 13.8323 26.0811 15.0182C26.0811 16.1847 26.3044 17.1178 26.7509 17.8177C27.2168 18.4981 27.8575 18.8384 28.6729 18.8384C29.0806 18.8384 29.4979 18.7023 29.925 18.4301C30.3522 18.1579 30.6142 17.8177 30.7113 17.4094V10.469Z" fill="black"/>
<path d="M40.898 15.7181C41.1698 17.7983 42.3444 18.8384 44.4216 18.8384C45.3147 18.8384 46.033 18.6731 46.5766 18.3426C47.1201 17.9927 47.5666 17.6525 47.9161 17.322L48.5859 19.859C48.0423 20.5783 47.0134 21.1032 45.4991 21.4337C44.9943 21.5504 44.3828 21.6087 43.6645 21.6087C42.9462 21.6087 42.1891 21.4629 41.3931 21.1713C40.6165 20.8797 39.9176 20.4422 39.2964 19.859C37.918 18.5565 37.2288 16.7776 37.2288 14.5225C37.2288 12.1506 37.9277 10.2843 39.3255 8.92344C40.4904 7.75697 41.9561 7.17374 43.7227 7.17374C45.0623 7.17374 46.198 7.49452 47.1298 8.13608C48.1782 8.87483 48.7024 9.88576 48.7024 11.1689C48.7024 12.7047 48.0714 13.8712 46.8095 14.6683C45.6835 15.3876 44.2081 15.7472 42.3832 15.7472H41.5969C41.3446 15.7472 41.1116 15.7375 40.898 15.7181ZM40.9272 13.2685C41.0242 13.2879 41.1698 13.2977 41.364 13.2977H41.8881C43.3053 13.2977 44.2857 12.9477 44.8293 12.2479C45.0235 11.9951 45.1205 11.6646 45.1205 11.2564C45.1205 10.8287 44.9943 10.5079 44.742 10.294C44.4896 10.0607 44.179 9.94409 43.8101 9.94409C43.4412 9.94409 43.0918 10.0316 42.7618 10.2065C42.4317 10.3815 42.1405 10.6245 41.8881 10.9356C41.3251 11.5577 41.0048 12.3353 40.9272 13.2685Z" fill="black"/>
<path d="M53.8014 16.8554L54.5585 18.7509C54.7333 18.8092 54.9953 18.8384 55.3448 18.8384C55.6942 18.8384 55.9563 18.8189 56.1311 18.78C56.3058 18.7217 56.4708 18.6342 56.6261 18.5176C56.9561 18.2843 57.1212 17.983 57.1212 17.6136C57.1212 17.2442 57.0144 16.9623 56.8008 16.7679C56.6067 16.554 56.364 16.3791 56.0728 16.243C55.7816 16.1069 55.4807 15.9903 55.1701 15.893C54.8595 15.7958 54.6071 15.6986 54.4129 15.6014C53.054 15.0571 52.1027 14.435 51.5591 13.7351C51.0155 13.0158 50.7437 12.3062 50.7437 11.6063C50.7437 10.887 50.8699 10.2746 51.1223 9.76912C51.3747 9.24421 51.7338 8.79707 52.1998 8.42769C53.1899 7.59173 54.3838 7.17374 55.7816 7.17374C57.6453 7.17374 59.0819 7.80557 60.0915 9.06924C60.3632 9.41918 60.5768 9.74968 60.7321 10.0607L57.0338 11.548L56.3349 10.0607C56.1408 9.96353 55.9078 9.91493 55.636 9.91493C54.7818 9.91493 54.3547 10.2843 54.3547 11.0231C54.3547 11.3147 54.51 11.5674 54.8206 11.7813C55.1312 11.9951 55.5195 12.209 55.9855 12.4228C56.4514 12.6367 56.9561 12.87 57.4997 13.1227C58.0627 13.3754 58.5772 13.6768 59.0431 14.0267C60.1303 14.8432 60.6739 15.8736 60.6739 17.1178C60.6739 18.4981 60.1497 19.6063 59.1014 20.4422C58.1113 21.2004 56.9076 21.5796 55.4904 21.5796C54.1703 21.5796 52.9957 21.2199 51.9668 20.5006C51.0544 19.8785 50.4234 19.1397 50.074 18.2843L53.8014 16.8554Z" fill="black"/>
<path d="M73.461 19.9757C72.4126 21.0644 70.8692 21.6087 68.8308 21.6087C67.1418 21.6087 65.7149 21.0644 64.5501 19.9757C63.1523 18.6926 62.4534 16.9331 62.4534 14.6974C62.4534 12.0534 63.1523 10.0705 64.5501 8.74847C65.6372 7.69865 67.0545 7.17374 68.8017 7.17374C70.2577 7.17374 71.4614 7.55284 72.4126 8.31104C72.898 8.69986 73.3154 9.18589 73.6648 9.76912L70.1412 11.6646L68.889 9.91493C67.996 9.91493 67.2971 10.3329 66.7924 11.1689C66.307 12.0048 66.0644 13.1324 66.0644 14.5516C66.0644 16.5152 66.6759 17.8274 67.8989 18.4884C68.326 18.7217 68.792 18.8384 69.2967 18.8384C69.8015 18.8384 70.2286 18.7898 70.578 18.6926C70.9275 18.5759 71.2381 18.4495 71.5099 18.3135C71.8011 18.1579 72.0438 18.0024 72.2379 17.8469C72.432 17.6719 72.5874 17.5358 72.7038 17.4386C72.7427 17.5747 72.8009 17.7594 72.8786 17.9927C72.9562 18.226 73.0339 18.469 73.1115 18.7217C73.1892 18.9745 73.2571 19.2175 73.3154 19.4508C73.3736 19.6841 73.4221 19.859 73.461 19.9757Z" fill="black"/>
<path d="M86.8467 21.6087C85.7012 21.6087 84.915 21.1421 84.4879 20.209C84.0414 20.695 83.4784 21.0546 82.7989 21.2879C82.1194 21.5018 81.4593 21.6087 80.8187 21.6087C79.4403 21.6087 78.3434 21.2588 77.5281 20.5589C76.7127 19.8396 76.305 18.7314 76.305 17.2345V9.88577H74.8199L74.4995 7.93194L78.8094 7.14458L79.8286 8.25272V16.5638C79.8286 17.322 80.0033 17.8858 80.3528 18.2551C80.7216 18.6245 81.1876 18.8092 81.7506 18.8092C82.3136 18.8092 82.8183 18.6537 83.2648 18.3426C83.7113 18.0316 84.0123 17.6816 84.1676 17.2928V9.79828L82.8571 9.88577L82.5077 7.93194L86.6719 7.14458L87.6912 8.25272V18.4301C87.6912 18.8578 87.8465 19.0717 88.1571 19.0717L88.5648 19.0133L89.1181 20.6464C89.0016 20.7825 88.7395 20.9769 88.3318 21.2296C87.9435 21.4823 87.4485 21.6087 86.8467 21.6087Z" fill="black"/>
<path d="M95.0632 7.72781C95.8009 7.35843 96.626 7.17374 97.5385 7.17374C98.4509 7.17374 99.2566 7.33899 99.9555 7.66949C100.654 7.98055 101.256 8.43741 101.761 9.04008C102.809 10.2843 103.333 11.9951 103.333 14.1725C103.333 16.8165 102.654 18.7703 101.295 20.034C100.15 21.0838 98.6644 21.6087 96.8396 21.6087C95.733 21.6087 94.8011 21.4046 94.044 20.9963L92.5006 21.6087L91.5687 20.8214V2.50789L90.0545 2.59538L89.7341 0.61239L94.0731 0.0291594L95.0632 1.04982V7.72781ZM95.0632 18.4884C95.4515 18.7412 96.0436 18.8675 96.8396 18.8675C97.6355 18.8675 98.315 18.5079 98.878 17.7885C99.441 17.0498 99.7225 15.9125 99.7225 14.3766C99.7225 12.8214 99.4507 11.6938 98.9071 10.9939C98.3829 10.2746 97.7326 9.91493 96.956 9.91493C96.1795 9.91493 95.5485 10.0899 95.0632 10.4398V18.4884Z" fill="black"/>
<path d="M113.762 19.6257L113.791 21.4921H105.404L104.968 19.6257L106.715 19.1591V9.79828L105.23 9.91493L104.909 7.93194C105.162 7.89306 105.482 7.83474 105.87 7.75697C106.278 7.67921 106.686 7.60144 107.093 7.52368C108.181 7.30983 108.802 7.19319 108.957 7.17374L109.947 8.69014C110.336 8.20411 110.801 7.83474 111.345 7.582C111.889 7.30983 112.5 7.17374 113.18 7.17374C113.859 7.17374 114.539 7.37787 115.218 7.78613C115.917 8.17496 116.402 8.81651 116.674 9.7108L113.15 11.548L112.277 10.0899C111.792 10.0899 111.364 10.3135 110.996 10.7606C110.491 11.3633 110.238 12.1604 110.238 13.1519V18.6051C110.238 18.6245 110.384 18.6828 110.675 18.78C110.986 18.8578 111.345 18.955 111.753 19.0717C112.723 19.3633 113.393 19.548 113.762 19.6257Z" fill="black"/>
<path d="M124.907 20.209C123.976 21.1421 122.888 21.6087 121.646 21.6087C120.326 21.6087 119.277 21.2393 118.501 20.5006C117.783 19.8007 117.423 18.955 117.423 17.9635C117.423 16.9526 117.647 16.1555 118.093 15.5723C118.54 14.989 119.103 14.5127 119.782 14.1434C121.064 13.4824 122.655 13.1324 124.558 13.0935V10.7898C124.558 10.5759 124.403 10.3815 124.092 10.2065C123.801 10.0121 123.451 9.91493 123.044 9.91493C122.384 9.91493 121.976 9.94409 121.821 10.0024L121.064 12.1604L117.453 10.5856C117.841 9.63303 118.54 8.83595 119.549 8.19439C120.617 7.51396 121.792 7.17374 123.073 7.17374C125.305 7.17374 126.829 7.99998 127.645 9.65247C127.936 10.2357 128.082 10.9745 128.082 11.8688V18.4301C128.082 18.8578 128.256 19.0717 128.606 19.0717L129.043 19.0133L129.567 20.6464C128.829 21.2879 128.052 21.6087 127.237 21.6087C126.15 21.6087 125.373 21.1421 124.907 20.209ZM124.558 15.5431C122.209 15.6598 121.034 16.3013 121.034 17.4678C121.034 17.7983 121.141 18.1093 121.355 18.4009C121.568 18.6731 121.918 18.8092 122.403 18.8092C122.908 18.8092 123.354 18.6634 123.743 18.3718C124.131 18.0802 124.403 17.7691 124.558 17.4386V15.5431Z" fill="black"/>
<path d="M130.059 24V21.8712L130.379 21.4921H145.988C146.104 21.4921 146.162 21.5601 146.162 21.6962V24H130.059Z" fill="black"/>
</svg>
